<?xml version="1.0" encoding="UTF-8"?>
<svg width="1200pt" height="1200pt" version="1.1" viewBox="0 0 1200 1200" xmlns="http://www.w3.org/2000/svg">
 <g>
  <rect width="1200" height="1200" fill="#cc3030"/>
  <path d="m601.85 794.1c-3.25 0.019532-6.2852-1.6016-8.0742-4.3125-1.7852-2.7109-2.082-6.1445-0.78125-9.1211l74.598-171.07h-149.88c-3.2695 0.007812-6.3125-1.6523-8.0781-4.3984-1.7656-2.75-2.0117-6.2109-0.64453-9.1797l84.133-184.5c2.2852-4.6641 7.8711-6.6602 12.598-4.5 4.7266 2.1562 6.875 7.6875 4.8477 12.469l-77.934 170.92h149.65c3.2461-0.019531 6.2852 1.6016 8.0742 4.3125 1.7852 2.7109 2.082 6.1445 0.78125 9.1211l-80.441 184.5c-1.543 3.5117-5.0195 5.7734-8.8555 5.7578z" fill="#fff"/>
 </g>
</svg>
