<svg xmlns="http://www.w3.org/2000/svg" version="1.1" viewBox="288.03 216 623.98 768.01"> <path d="m298.68 691.92c8.0664 15.676 20.297 28.832 35.348 38.02 15.051 9.1875 32.34 14.051 49.973 14.059h96v144c0 27.297 11.621 53.305 31.953 71.516 20.336 18.211 47.465 26.906 74.598 23.906 27.129-3 51.703-17.406 67.57-39.621l240-336c13.738-19.234 19.898-42.855 17.301-66.348s-13.77-45.199-31.375-60.969c-17.609-15.766-40.41-24.484-64.047-24.484h-96v-144c0-27.297-11.621-53.305-31.953-71.516-20.336-18.211-47.465-26.906-74.598-23.906-27.129 3-51.703 17.406-67.57 39.621l-240 336c-10.242 14.355-16.336 31.258-17.605 48.848-1.2695 17.594 2.332 35.195 10.406 50.875zm325.32-379.92v240h192l-240 336v-240h-192z" fill="#0046ab"></path></svg>
