<svg xmlns="http://www.w3.org/2000/svg" version="1.1" viewBox="174.55 226.52 850.92 746.96"> <path d="m179.57 618.75c-6.6953-11.605-6.6953-25.895 0-37.5 36.844-63.824 157.14-272.16 193.99-335.98 6.6953-11.586 19.07-18.75 32.477-18.75h387.94c13.406 0 25.781 7.1641 32.477 18.75 36.844 63.824 157.14 272.16 193.99 335.98 6.6953 11.605 6.6953 25.895 0 37.5-36.844 63.824-157.14 272.16-193.99 335.98-6.6953 11.586-19.07 18.75-32.477 18.75h-387.94c-13.406 0-25.781-7.1641-32.477-18.75-36.844-63.824-157.14-272.16-193.99-335.98zm420.43-206.25c103.48 0 187.5 84.02 187.5 187.5s-84.02 187.5-187.5 187.5-187.5-84.02-187.5-187.5 84.02-187.5 187.5-187.5z" fill="#0046ab" fill-rule="evenodd"></path></svg>
